<?xml version="1.0" encoding="utf-8"?>
<!-- Svg Vector Icons : http://www.onlinewebfonts.com/icon -->
<!DOCTYPE svg PUBLIC "-//W3C//DTD SVG 1.1//EN" "http://www.w3.org/Graphics/SVG/1.1/DTD/svg11.dtd">
<svg version="1.1" xmlns="http://www.w3.org/2000/svg" xmlns:xlink="http://www.w3.org/1999/xlink" x="0px" y="0px" viewBox="0 0 1000 1000" enable-background="new 0 0 1000 1000" xml:space="preserve">
<metadata> Svg Vector Icons : http://www.onlinewebfonts.com/icon </metadata>
<g><g transform="translate(0.000000,511.000000) scale(0.100000,-0.100000)"><path d="M3129.8,4990.8c-88.1-26.6-151.6-77.8-198.7-161.8c-43-75.8-45.1-100.4-45.1-667.8c0-665.8,4.1-688.3,149.5-784.6c79.9-53.3,92.2-55.3,448.6-61.5l364.6-6.2l-4.1-362.6l-6.1-360.5l-71.7-18.4c-258.1-65.6-575.6-178.2-778.5-272.5C1439.8,1559.5,591.7-147,939.9-1828.8c116.8-561.3,395.4-1147.2,758-1589.7c172.1-211,516.2-532.6,737.5-692.4c241.7-172.1,700.6-401.5,983.3-493.7c1796.6-581.8,3716.1,243.8,4529.4,1944.1c403.6,844,469.1,1847.8,180.3,2734.8c-79.9,239.7-213,544.9-311.4,706.7l-73.8,122.9l61.5,53.3c34.8,30.7,102.4,81.9,149.6,116.8l88.1,63.5l120.8-163.9c153.6-211,245.8-262.2,362.6-200.8c81.9,43,544.9,407.7,577.7,452.7c71.7,102.4,47.1,157.7-229.4,522.4c-835.8,1100.1-827.6,1089.8-901.4,1110.3c-100.4,28.7-137.3,10.2-448.6-225.3c-372.8-282.7-383.1-315.5-178.2-587.9c59.4-81.9,114.7-159.8,118.8-174.1c8.2-24.6-254-239.7-292.9-239.7c-10.2,0-65.5,38.9-118.8,88.1c-254,223.3-573.6,436.3-882.9,581.8c-198.7,94.2-614.6,237.6-758,262.2l-88.1,14.3v366.7V3311h323.7c176.2,0,354.4,10.2,393.3,20.5c84,22.5,192.6,125,223.3,211c34.8,92.2,30.7,1165.6-6.2,1249.6c-34.8,86-135.2,170-233.5,198.7C5934.3,5015.4,3211.7,5017.4,3129.8,4990.8z M5133.3,1653.7c520.3-106.5,983.3-350.3,1366.4-719c440.4-424.1,725.2-960.8,823.5-1552.8c49.2-309.3,32.8-817.4-38.9-1102.1c-131.1-518.3-368.7-940.3-739.5-1311.1c-370.8-370.8-792.8-608.4-1311.1-739.5c-284.7-71.7-792.8-88.1-1102.1-38.9C2529.6-3545.5,1491-1959.9,1892.5-388.7c127,501.9,362.6,917.8,727.2,1282.4c440.4,438.4,995.6,712.9,1622.5,796.9C4465.5,1721.3,4891.6,1702.9,5133.3,1653.7z"/><path d="M3402.3-616.1c923.9-1075.5,885-1040.7,1184.1-1040.7c131.1,0,192.6,10.2,245.8,38.9c143.4,75.8,223.3,157.7,288.8,288.9c59.4,122.9,63.5,145.4,55.3,290.9c-12.3,194.6-57.3,295-196.7,417.9c-92.2,84-184.4,120.9-1225,516.2c-618.7,233.5-1130.8,424-1141,424C2605.4,320.1,2959.8-101.9,3402.3-616.1z"/></g></g>
</svg>