<?xml version="1.0" encoding="utf-8"?>
<!-- Svg Vector Icons : http://www.onlinewebfonts.com/icon -->
<!DOCTYPE svg PUBLIC "-//W3C//DTD SVG 1.1//EN" "http://www.w3.org/Graphics/SVG/1.1/DTD/svg11.dtd">
<svg version="1.1" xmlns="http://www.w3.org/2000/svg" xmlns:xlink="http://www.w3.org/1999/xlink" x="0px" y="0px" viewBox="0 0 1000 1000" enable-background="new 0 0 1000 1000" xml:space="preserve">
<metadata> Svg Vector Icons : http://www.onlinewebfonts.com/icon </metadata>
<g><path d="M928.8,56.8h-211v77.1c0,1.4-0.1,2.8-0.3,4.1h144.9c18.5,0,33.4,15,33.4,33.4v703.9c0,18.5-15,33.4-33.4,33.4H137.6c-18.5,0-33.4-15-33.4-33.4v-704c0-18.5,15-33.4,33.4-33.4h144.9c-0.2-1.4-0.3-2.7-0.3-4.1V56.8h-211c-18.5,0-33.4,15-33.4,33.4v866.4c0,18.5,15,33.4,33.4,33.4h857.6c18.4,0,33.4-15,33.4-33.4V90.2C962.2,71.8,947.2,56.8,928.8,56.8L928.8,56.8z M681.3,137.7c0,20.1-19.1,36.5-42.9,36.5h-278c-23.6,0-42.8-16.3-42.8-36.5V46.5c0-20.1,19.2-36.5,42.8-36.5h278c23.7,0,42.9,16.4,42.9,36.5L681.3,137.7L681.3,137.7L681.3,137.7z M195.6,306.5c0-14.3,5.9-28.6,16-38.7c10.1-10.1,24.4-16,38.7-16c14.3,0,28.6,5.9,38.7,16c10.1,10.1,16,24.4,16,38.7c0,14.3-5.9,28.6-16,38.7c-10.1,10.1-24.4,16-38.7,16c-14.3,0-28.6-5.9-38.7-16C201.5,335.1,195.6,320.9,195.6,306.5L195.6,306.5z M195.6,528.4c0-14.3,5.9-28.6,16-38.7c10.1-10.1,24.4-16,38.7-16c14.3,0,28.6,5.9,38.7,16c10.1,10.1,16,24.4,16,38.7s-5.9,28.6-16,38.7c-10.1,10.1-24.4,16-38.7,16c-14.3,0-28.6-5.9-38.7-16C201.5,557,195.6,542.8,195.6,528.4L195.6,528.4z M195.6,748.2c0-14.3,5.9-28.6,16-38.7c10.1-10.1,24.4-16,38.7-16c14.3,0,28.6,5.9,38.7,16c10.1,10.1,16,24.4,16,38.7c0,14.3-5.9,28.6-16,38.7c-10.1,10.1-24.4,16-38.7,16c-14.3,0-28.6-5.9-38.7-16C201.5,776.8,195.6,762.6,195.6,748.2L195.6,748.2z M356.1,267.7h445.5v61.1H356.1V267.7L356.1,267.7z M356.1,497.9h445.5V559H356.1V497.9L356.1,497.9z M356.1,717.7h445.5v61.1H356.1V717.7L356.1,717.7z"/></g>
</svg>