<?xml version="1.0" encoding="iso-8859-1"?>
<!-- Generator: Adobe Illustrator 19.0.0, SVG Export Plug-In . SVG Version: 6.00 Build 0)  -->
<svg version="1.1" id="Layer_1" xmlns="http://www.w3.org/2000/svg" xmlns:xlink="http://www.w3.org/1999/xlink" x="0px" y="0px"
	 viewBox="0 0 499.2 499.2" style="enable-background:new 0 0 499.2 499.2;" xml:space="preserve">
<path style="fill:#4F0404;" d="M489.6,229.6c-10.4,20.8-29.6,37.6-52.8,44c19.2,45.6,21.6,96.8,2.4,142.4c34.4-11.2,60-43.2,60-81.6
	v-68.8C499.2,253.6,495.2,241.6,489.6,229.6z"/>
<path style="fill:#C42014;" d="M413.6,177.6h-228c-47.2,0-86.4,38.4-86.4,85.6v58.4h232l0,0h82.4c33.6,0,64,20.8,77.6,49.6
	c6.4-14.4,8-25.6,8-39.2v-68.8C499.2,216,460.8,177.6,413.6,177.6z"/>
<polygon style="fill:#EA2D28;" points="123.2,249.6 219.2,153.6 219.2,30.4 0,249.6 219.2,468.8 219.2,345.6 "/>
<polyline style="fill:#C42014;" points="1.6,249.6 219.2,468.8 219.2,345.6 124.8,249.6 219.2,153.6 "/>
<g>
</g>
<g>
</g>
<g>
</g>
<g>
</g>
<g>
</g>
<g>
</g>
<g>
</g>
<g>
</g>
<g>
</g>
<g>
</g>
<g>
</g>
<g>
</g>
<g>
</g>
<g>
</g>
<g>
</g>
</svg>
