<svg version="1.1" viewBox="0 0 23 23" height="23" width="23"><g transform="matrix(0.76666667,0,0,0.76666667,-5.147619,-763.76816)">

<g transform="matrix(0.96774195,0,0,0.96774195,4.4829705,994.45004)"><g transform="matrix(0.50591842,0,0,0.50591842,254.23635,132.12496)">

<path d="m -467.32953,-257.54485 c -17.06952,0 -30.63743,13.56802 -30.63743,30.63727 0,17.06952 13.56791,30.63743 30.63743,30.63743 17.06925,0 30.63727,-13.56791 30.63727,-30.63743 0,-17.06925 -13.56802,-30.63727 -30.63727,-30.63727 l 0,0 z m 0,57.77322 c -14.88108,0 -27.13595,-12.25487 -27.13595,-27.13595 0,-14.88089 12.25487,-27.13575 27.13595,-27.13575 14.88089,0 27.13575,12.25486 27.13575,27.13575 0,14.88108 -12.25486,27.13595 -27.13575,27.13595 l 0,0 z m -15.75643,-38.95314 32.82568,0 c 0.87536,0 1.75079,0.87547 1.75079,1.75077 l 0,0 c 0,0.87538 -0.87543,1.75076 -1.75079,1.75076 l -32.82568,0 c -0.87545,0 -1.75075,-0.87538 -1.75075,-1.75076 l 0,0 c 0,-0.8753 0.8753,-1.75077 1.75075,-1.75077 l 0,0 z"></path>

<path d="m -483.08596,-228.65815 32.82568,0 c 0.87536,0 1.75079,0.87533 1.75079,1.75057 l 0,0 c 0,0.87551 -0.87543,1.75085 -1.75079,1.75085 l -32.82568,0 c -0.87545,0 -1.75075,-0.87534 -1.75075,-1.75085 l 0,0 c 0,-0.87524 0.8753,-1.75057 1.75075,-1.75057 l 0,0 z"></path>

<path d="M -483.08596,-228.65815"></path>

<path d="m -483.08596,-219.02923 32.82568,0 c 0.87536,0 1.75079,0.87524 1.75079,1.7507 l 0,0 c 0,0.87538 -0.87543,1.75065 -1.75079,1.75065 l -32.82568,0 c -0.87545,0 -1.75075,-0.87527 -1.75075,-1.75065 l 0,0 c 0,-0.87546 0.8753,-1.7507 1.75075,-1.7507 l 0,0 z"></path><path d="M -483.08596,-219.02923"></path></g></g></g></svg>