<?xml version="1.0" encoding="utf-8"?>
<!-- Generator: Adobe Illustrator 19.2.0, SVG Export Plug-In . SVG Version: 6.00 Build 0)  -->
<svg version="1.1"
	 id="svg4181" xmlns:cc="http://creativecommons.org/ns#" xmlns:dc="http://purl.org/dc/elements/1.1/" xmlns:rdf="http://www.w3.org/1999/02/22-rdf-syntax-ns#" xmlns:svg="http://www.w3.org/2000/svg"
	 xmlns="http://www.w3.org/2000/svg" xmlns:xlink="http://www.w3.org/1999/xlink" x="0px" y="0px" viewBox="0 0 151.006 304.418"
	 enable-background="new 0 0 151.006 304.418" xml:space="preserve">
<image display="none" overflow="visible" enable-background="new    " width="491" height="538" id="image4189" xlink:href="41A1CD0CCB7DC682.png"  transform="matrix(0.6197 0 0 0.5658 335.9997 -19)">
</image>
<g id="g4191" transform="translate(0,-233.58215)">
	<g id="g4199" transform="translate(-90.154518,136.40261)">
		<path id="path4195" fill="#FFFF00" d="M88.932,166.274l0.16-37.114l4.337-0.368c8.074-0.684,16.072-4.274,22.115-9.927
			c2.543-2.377,9.336-10.968,8.951-11.318c-0.076-0.07-2.555,0.478-5.504,1.219c-7.172,1.802-15.455,3.029-23.549,3.49l-6.662,0.379
			v-3.137v-3.137l5.113-0.387c8.854-0.671,25.082-4.092,32.822-6.92l2.375-0.867l4.477,3.095
			c14.281,9.875,26.096,15.396,42.678,19.945c10.766,2.954,20.113,6.856,25.848,10.793c3.252,2.233,4.963,4.144,10.301,11.508
			c12.332,17.009,20.305,34.131,24.178,51.92c0.869,3.998,2.258,8.972,3.084,11.052l1.504,3.782l-5.237,4.527
			c-11.346,9.806-26.775,17.256-44.076,21.28c-3.35,0.779-6.396,1.419-6.773,1.422c-0.631,0.005-3.324-4.948-5.227-9.614
			c-1.199-2.938-4.822-9.489-5.443-9.84c-1.566-0.885-6.422,39.413-8.207,68.12c-0.836,13.471-0.42,46.836,0.641,51.357
			c0.385,1.637,1.783,5.457,3.109,8.486c5.654,12.928,10.529,31.623,10.537,40.426l0.008,4.928l-4.184,1.098
			c-18.037,4.736-40.729,7.234-75.598,8.326l-11.929,0.373C87.118,321.863,88.458,233.888,88.932,166.274L88.932,166.274z"/>
	</g>
</g>
</svg>
